<svg xmlns="http://www.w3.org/2000/svg" xmlns:xlink="http://www.w3.org/1999/xlink" width="616.529" height="809.813" viewBox="0 0 616.529 809.813">
  <defs>
    <linearGradient id="linear-gradient" y1="0.5" x2="1" y2="0.5" gradientUnits="objectBoundingBox">
      <stop offset="0.005" stop-color="#36ffe1"/>
      <stop offset="0.308" stop-color="#009fe3" stop-opacity="0.502"/>
      <stop offset="1" stop-color="#fff" stop-opacity="0"/>
    </linearGradient>
    <linearGradient id="linear-gradient-2" y1="0.499" x2="1" y2="0.499" gradientUnits="objectBoundingBox">
      <stop offset="0" stop-color="#fff" stop-opacity="0"/>
      <stop offset="0.703" stop-color="#36ffe1" stop-opacity="0.502"/>
      <stop offset="1" stop-color="#009fe3"/>
    </linearGradient>
    <linearGradient id="linear-gradient-3" x1="-1.261" y1="5.027" x2="-0.303" y2="5.027" xlink:href="#linear-gradient-2"/>
    <linearGradient id="linear-gradient-4" x1="37.758" y1="12.98" x2="40.697" y2="12.98" gradientUnits="objectBoundingBox">
      <stop offset="0.005" stop-color="#36ffe1"/>
      <stop offset="1" stop-color="#009fe3"/>
    </linearGradient>
    <linearGradient id="linear-gradient-5" x1="2.648" y1="5.339" x2="3.38" y2="5.339" xlink:href="#linear-gradient-4"/>
    <linearGradient id="linear-gradient-6" x1="5.34" y1="31.602" x2="6.325" y2="31.602" gradientUnits="objectBoundingBox">
      <stop offset="0" stop-color="#e6457e"/>
      <stop offset="1" stop-color="#3127c9"/>
    </linearGradient>
    <linearGradient id="linear-gradient-7" x1="3.39" y1="7.99" x2="4.739" y2="7.99" xlink:href="#linear-gradient-6"/>
    <linearGradient id="linear-gradient-8" x1="5.656" y1="19.554" x2="6.503" y2="19.554" xlink:href="#linear-gradient-6"/>
    <linearGradient id="linear-gradient-9" x1="3.17" y1="14.495" x2="4.235" y2="14.495" gradientUnits="objectBoundingBox">
      <stop offset="0" stop-color="#662483"/>
      <stop offset="1" stop-color="#2d2e83"/>
    </linearGradient>
    <linearGradient id="linear-gradient-10" x1="7.689" y1="46.825" x2="8.767" y2="46.825" xlink:href="#linear-gradient-9"/>
    <linearGradient id="linear-gradient-11" x1="16.676" y1="-5.694" x2="17.576" y2="-5.694" xlink:href="#linear-gradient-4"/>
    <linearGradient id="linear-gradient-12" x1="-0.003" y1="0.499" x2="0.998" y2="0.499" xlink:href="#linear-gradient-4"/>
    <linearGradient id="linear-gradient-13" x1="39.824" y1="5.318" x2="40.965" y2="5.318" gradientUnits="objectBoundingBox">
      <stop offset="0" stop-color="#f9b233"/>
      <stop offset="1" stop-color="#88c249"/>
    </linearGradient>
    <clipPath id="clip-path">
      <path id="Path_664" data-name="Path 664" d="M208.844,304.024h0a5.435,5.435,0,0,1-.247,3.7,5.816,5.816,0,0,1-2.344,1.851A42.234,42.234,0,0,1,174.3,311.8a2,2,0,0,1-1.11-.617c-.37-.37-.37-1.11-.493-1.6-.37-6.786-.494-13.7-.494-20.481a117.038,117.038,0,0,1,.74-14.682,79.35,79.35,0,0,1,10.117-30.6,4.9,4.9,0,0,1,1.974-2.221,4.055,4.055,0,0,1,2.1-.494c2.838,0,5.305,1.6,7.773,2.714,3.208,1.481,5.059,1.357,8.39,1.481s2.591-.37,2.591,3.084c0,3.578-.494,7.279-.494,10.857A237.456,237.456,0,0,0,208.844,304.024Z" transform="translate(-172.2 -241.1)"/>
    </clipPath>
    <linearGradient id="linear-gradient-14" x1="40.501" y1="9.335" x2="41.439" y2="9.335" xlink:href="#linear-gradient-9"/>
    <linearGradient id="linear-gradient-15" x1="0" y1="0.501" x2="1" y2="0.501" xlink:href="#linear-gradient-9"/>
    <linearGradient id="linear-gradient-16" x1="-7.508" y1="1.359" x2="-6.658" y2="1.359" xlink:href="#linear-gradient-9"/>
    <linearGradient id="linear-gradient-17" x1="-78.675" y1="25.048" x2="-77.491" y2="25.048" xlink:href="#linear-gradient-4"/>
    <linearGradient id="linear-gradient-18" x1="-3.658" y1="1.169" x2="-2.711" y2="1.169" xlink:href="#linear-gradient-6"/>
    <clipPath id="clip-path-2">
      <path id="Path_705" data-name="Path 705" d="M167.924,193.246h0c-5.922,4.195-9.747,10.611-13.2,16.9a234.084,234.084,0,0,0-11.351,24.676c-.494,1.11-1.11,2.468-2.344,2.468-1.11,0-1.974-.987-2.591-1.974a90.315,90.315,0,0,0-15.422-18.137c-3.455-3.084-7.4-6.046-11.968-6.909-2.344-.493-5.305,0-6.292,2.221-.74,1.727.123,3.578.987,5.305a104.842,104.842,0,0,0,28.007,33.066c2.961,2.221,6.292,4.442,9.87,4.195,3.455-.247,6.292-2.591,8.883-4.812,12.461-10.611,24.676-21.468,34.546-34.546,2.714-3.7,5.429-7.65,6.046-12.215C195.437,189.051,177.177,186.83,167.924,193.246Z" transform="translate(-104.473 -189.837)"/>
    </clipPath>
    <linearGradient id="linear-gradient-19" x1="-7.893" y1="0.822" x2="-7.073" y2="0.822" xlink:href="#linear-gradient-6"/>
    <clipPath id="clip-path-3">
      <path id="Path_708" data-name="Path 708" d="M155.444,203.3c-2.344,5.922-1.974,12.461-1.6,18.754.617,9.994,1.357,19.988,3.578,29.611.987,4.442,2.468,9.007,1.851,13.572-.617,5.429-3.948,10.117-6.416,14.929a51.078,51.078,0,0,0-5.182,29.241,8.032,8.032,0,0,0,.987,3.455,3.074,3.074,0,0,0,3.208,1.357,4.356,4.356,0,0,0,2.1-1.851c8.637-12.215,14.559-26.157,18.877-40.469s7.033-28.994,9.747-43.8c1.357-7.156,2.591-14.312,2.1-21.468-.37-4.318-1.357-8.637-3.948-12.091h0C172.593,184.3,159.145,193.8,155.444,203.3Z" transform="translate(-147.298 -190.117)"/>
    </clipPath>
    <linearGradient id="linear-gradient-20" x1="-47.605" y1="17.619" x2="-46.66" y2="17.619" xlink:href="#linear-gradient-9"/>
    <linearGradient id="linear-gradient-21" x1="-4.72" y1="0.981" x2="-3.881" y2="0.981" xlink:href="#linear-gradient-9"/>
    <linearGradient id="linear-gradient-22" x1="34.177" y1="5.697" x2="35.197" y2="5.697" xlink:href="#linear-gradient-4"/>
  </defs>
  <g id="Group_665" data-name="Group 665" transform="translate(-23.547 -14.428)">
    <g id="Group_581" data-name="Group 581" transform="translate(23.547 14.429)">
      <g id="Group_709" data-name="Group 709">
        <g id="Group_563" data-name="Group 563" transform="translate(30.644 168.591)">
          <path id="Path_616" data-name="Path 616" d="M97,618.688c-13.819-17.89-34.176-29.981-47.378-48.242C36.3,552.186,33.463,522.2,52.586,510.237c9.747-6.169,22.7-5.675,32.326-12.215,10.734-7.279,14.559-21.838,13.2-34.67C96.756,450.4,91.2,438.43,86.763,426.215a216.676,216.676,0,0,1-13.078-69.71c-.37-14.312.864-29.241,7.65-41.826s20.358-22.455,34.67-21.221c6.663.617,13.078,3.455,19.741,4.195,15.916,1.6,30.722-9.994,38.494-23.936s10.364-30.1,13.942-45.774c4.442-19,10.857-38.124,23.442-52.93,12.585-14.929,32.449-24.8,51.573-21.221,28.254,5.305,46.144,37.014,74.645,41.579,22.332,3.578,42.936-10.611,62.677-21.591A243.988,243.988,0,0,1,456.779,151.2c15.669-4.195,32.2-6.786,47.871-2.714s30.1,16.039,32.942,31.955c1.727,10.241-1.234,20.6-4.318,30.475-4.318,14.189-8.637,28.254-12.955,42.443-1.357,4.565-2.838,9.377-2.221,14.065.74,5.675,4.195,10.734,8.266,14.929,18.507,19,48.488,24.306,64.774,45.28,7.9,10.117,11.474,22.825,14.559,35.163,2.591,10.364,4.935,21.221,3.455,31.832-2.714,19.741-17.767,35.41-33.806,47.131s-34.176,21.1-47.748,35.533c-3.948,4.195-7.773,9.377-7.526,15.176.247,7.9,7.4,13.448,12.831,19.247,15.546,16.78,18.26,42.443,12.585,64.651s-18.384,41.7-30.968,60.95q-28.5,43.306-56.878,86.613c-9.87,15.052-19.988,30.351-34.3,41.209-18.877,14.435-43.306,19.741-67,21.715-38.124,3.208-79.7-2.468-107.587-28.5-13.325-12.461-22.825-28.747-36.644-40.715-21.1-18.26-49.969-24.182-74.768-36.891-24.8-12.832-47.748-39.235-39.728-66.008" transform="translate(-38.937 -146.444)" fill="#cfe6b6"/>
        </g>
        <rect id="Rectangle_53" data-name="Rectangle 53" width="616.529" height="616.529" fill="none"/>
      </g>
    </g>
    <path id="Path_629" data-name="Path 629" d="M20.939,268.4c2.468,5.429,26.4-.37,53.423-12.708,27.02-12.461,47.008-26.9,44.54-32.2-2.468-5.429-26.4.37-53.423,12.708C38.459,248.656,18.471,263.092,20.939,268.4Z" transform="translate(9.764 134.308)" fill="url(#linear-gradient)"/>
    <path id="Path_630" data-name="Path 630" d="M28.239,253.1c2.468,5.429,26.4-.37,53.423-12.708,27.02-12.461,47.008-26.9,44.54-32.2-2.468-5.429-26.4.37-53.423,12.708C45.636,233.356,25.772,247.668,28.239,253.1Z" transform="translate(11.47 130.731)" fill="url(#linear-gradient-2)"/>
    <path id="Path_631" data-name="Path 631" d="M115.669,339.514c2.714,5.922,19.741,3.825,38-4.565s30.968-19.988,28.254-25.91-19.741-3.825-38,4.565S112.955,333.592,115.669,339.514Z" transform="translate(31.874 153.999)" fill="url(#linear-gradient-3)"/>
    <g id="Group_595" data-name="Group 595" transform="translate(324.84 423.455)">
      <g id="Group_582" data-name="Group 582" transform="translate(85.502 180.189)">
        <path id="Path_632" data-name="Path 632" d="M348.094,434.5a3.649,3.649,0,0,1-.247,1.234,2.555,2.555,0,0,1-1.6,1.357,12.644,12.644,0,0,1-5.305.864,83.438,83.438,0,0,1-11.1-.247c-.494,0-1.234-.247-1.234-.74a1.565,1.565,0,0,1,.123-.74,5.836,5.836,0,0,1,2.714-2.468c1.6-.617,3.578-.37,5.182-.864a5.972,5.972,0,0,0,4.071-5.552,1.329,1.329,0,0,1,.247-.987.942.942,0,0,1,.617-.247h0c2.468-.37,4.935-5.552,6.169-3.084C348.711,424.876,348.217,432.649,348.094,434.5Z" transform="translate(-328.6 -422.362)" fill="#88c249"/>
      </g>
      <g id="Group_583" data-name="Group 583" transform="translate(126.108 177.836)">
        <path id="Path_633" data-name="Path 633" d="M382.1,431.368a3.477,3.477,0,0,1-.617,2.961,3.1,3.1,0,0,1-1.727.74,60.046,60.046,0,0,1-16.9,1.6c-.37,0-.864,0-1.11-.37-.493-.494-.123-1.357.37-1.727,1.481-1.357,3.825-1.481,5.8-1.851a10.424,10.424,0,0,0,4.688-1.851,4.931,4.931,0,0,0,1.851-4.442h0c-.494-2.591,3.825-6.909,5.922-5.8C382.719,421.868,381.978,429.147,382.1,431.368Z" transform="translate(-361.511 -420.455)" fill="#88c249"/>
      </g>
      <g id="Group_584" data-name="Group 584" transform="translate(113.786 85.542)">
        <path id="Path_634" data-name="Path 634" d="M370.988,395.927a10.035,10.035,0,0,0-.247,3.825,13.723,13.723,0,0,0,1.727,4.195,140.533,140.533,0,0,1,13.078,38.495,3.819,3.819,0,0,1-.123,2.344c-.247.493-9.377.987-9.994.74a2.525,2.525,0,0,1-.987-.987c-2.714-4.072-11.1-24.306-13.078-29.981-1.11-3.208-1.974-6.662-2.838-9.994-4.565-17.52-9.007-35.78-6.046-53.67a2.911,2.911,0,0,1,.864-1.974,4.146,4.146,0,0,1,1.727-.617h0c4.072-.617,8.143-1.11,12.338-1.727,1.481-.247,4.688-1.357,6.046-.74,1.6.617,1.357,2.1,1.727,3.578.617,2.468,1.481,4.442,1.234,7.033C376.047,360.394,372.1,390.375,370.988,395.927Z" transform="translate(-351.524 -345.651)" fill="url(#linear-gradient-4)"/>
      </g>
      <g id="Group_585" data-name="Group 585" transform="translate(83.272 94.204)">
        <path id="Path_635" data-name="Path 635" d="M328.282,393.669c-3.208,7.4-.617,16.039,1.974,23.689,2.838,8.266,5.552,16.656,8.39,24.923.247.617.247,3.948.74,4.318a3.068,3.068,0,0,0,2.344,0c2.468-.74,5.8.74,8.39,0-1.851-13.819-4.318-32.326-6.292-46.144a3.007,3.007,0,0,1,0-1.481c.247-.987,21.221-12.708,28.624-20.6,2.344-2.468,7.526-6.169,8.02-9.5.864-5.552,2.1-15.916,1.6-16.163-.37-.247-7.033.864-7.4.864-7.033,0-17.4-.247-21.838,6.416C346.913,368.746,329.639,390.461,328.282,393.669Z" transform="translate(-326.793 -352.671)" fill="url(#linear-gradient-5)"/>
      </g>
      <g id="Group_586" data-name="Group 586" transform="translate(27.243 27.966)">
        <path id="Path_636" data-name="Path 636" d="M325.328,312.452h0c-2.468-.74-4.935-1.727-7.4-2.591-5.552-1.727-11.6-1.974-16.9-4.688-3.208-1.6-5.922-3.948-9.13-5.305-3.331-1.357-7.526-1.357-9.87,1.481a2.309,2.309,0,0,0-.617,1.727c.247.987,1.481,1.234,2.344,1.11.987-.123,1.851-.617,2.838-.74,2.961-.123,4.318,3.825,7.033,4.812,1.11.37,2.344.247,3.331.617a8.862,8.862,0,0,1,2.468,1.727,35.876,35.876,0,0,0,9.994,6.539,67.728,67.728,0,0,0,9.624,3.208,161.22,161.22,0,0,0,23.072,4.072c2.714.247,6.046.247,7.65-2.1,1.357-1.974.617-4.935-.617-6.786-1.6-2.591-3.331-1.851-6.169-1.6C337.172,314.179,331.127,314.179,325.328,312.452Z" transform="translate(-281.38 -298.984)" fill="#feb292"/>
      </g>
      <circle id="Ellipse_35" data-name="Ellipse 35" cx="38.248" cy="38.248" r="38.248" transform="translate(4.688 9.848)" fill="#f27f20"/>
      <circle id="Ellipse_36" data-name="Ellipse 36" cx="38.248" cy="38.248" r="38.248" transform="translate(0 9.231)" fill="#fcbd3f"/>
      <path id="Path_637" data-name="Path 637" d="M335.437,310.9h-2.468l-.617,3.208a12.814,12.814,0,0,0,0,5.305l.494,2.344,3.455-.617Z" transform="translate(-242.285 -268.233)" fill="#fca39a"/>
      <g id="Group_587" data-name="Group 587" transform="translate(51.675 67.582)">
        <path id="Path_638" data-name="Path 638" d="M349.939,339a10.926,10.926,0,0,1-2.838,3.455c-1.234.864-3.208,1.6-4.565,1.234-6.786-1.851-11.6-2.961-18.63-4.318-1.974-.37-4.812-.493-6.292-1.727a12.349,12.349,0,0,1-3.7-4.565c-.37-.74-.494-2.1-1.234-1.974a1.51,1.51,0,0,0-1.234,1.727c.247.617.864,1.357.37,1.727-2.344-.74-4.565-2.1-7.033-1.851a4.785,4.785,0,0,0-3.208,1.357,2.077,2.077,0,0,0,.617,2.961c12.091,7.65,24.553,10.611,38.495,15.052a14.808,14.808,0,0,0,11.474-.617,20.516,20.516,0,0,0,8.143-8.39,3.23,3.23,0,0,0,.617-2.1,2.961,2.961,0,0,0-.864-1.481h0c-1.234-1.481-3.7-5.059-5.922-5.059C352.036,334.186,351.049,337.27,349.939,339Z" transform="translate(-301.183 -331.094)" fill="#feb292"/>
      </g>
      <path id="Path_639" data-name="Path 639" d="M343.127,333.7l-1.727,3.208a11.194,11.194,0,0,0,4.688,5.059,21.8,21.8,0,0,1,3.578,1.974l2.468-3.084Z" transform="translate(-240.105 -262.902)" fill="#fca39a"/>
      <g id="Group_588" data-name="Group 588" transform="translate(91.502 40.568)">
        <path id="Path_640" data-name="Path 640" d="M351.892,310.8h0a5.335,5.335,0,0,1,2.591,6.539,9.012,9.012,0,0,1-5.305,5.305c-4.195,1.851-9.13,1.727-13.7,1.357a1.685,1.685,0,0,1-1.357-.494,1.4,1.4,0,0,1-.37-.987,27.881,27.881,0,0,1,.987-12.338c.123-.247.123-.493.37-.74a1.175,1.175,0,0,1,.864-.247C340.665,309.2,347.574,309.077,351.892,310.8Z" transform="translate(-333.462 -309.198)" fill="url(#linear-gradient-6)"/>
      </g>
      <g id="Group_589" data-name="Group 589" transform="translate(104.55 38.683)">
        <path id="Path_641" data-name="Path 641" d="M344.978,332.259h0c1.11,2.714,2.714,5.182,3.7,7.9,1.357,3.825,1.481,8.02,2.1,12.091.617,4.442-1.974,14.929-1.481,15.546,1.234,1.727,8.883,1.357,10.981,1.11a63.079,63.079,0,0,0,13.448-3.331c.987-.37,3.948-1.357,4.442-2.221.37-.617-7.4-38.124-8.02-40.345-.987-3.331-1.727-4.195-3.331-7.279a45.39,45.39,0,0,0-5.922-7.9c-.617-.617-2.1.74-2.961.987-2.344.74-4.688,1.357-7.156,2.1a7.2,7.2,0,0,0-2.221.987,4.146,4.146,0,0,0-1.234,1.974C344.855,319.058,342.757,326.831,344.978,332.259Z" transform="translate(-344.039 -307.671)" fill="url(#linear-gradient-7)"/>
      </g>
      <g id="Group_590" data-name="Group 590" transform="translate(102.19 56.131)">
        <path id="Path_642" data-name="Path 642" d="M350.731,323.895h0a13.51,13.51,0,0,1,9.747-1.851,3.168,3.168,0,0,1,1.481.617,4.37,4.37,0,0,1,1.6,3.7c.123,3.825-1.851,7.279-4.195,10.364-2.221,3.084-4.935,5.8-6.416,9.253-3.331-.37-6.046-2.838-8.266-5.305s-3.578-5.429-1.6-8.39C345.055,329.447,348.016,325.622,350.731,323.895Z" transform="translate(-342.126 -321.812)" fill="url(#linear-gradient-8)"/>
      </g>
      <g id="Group_591" data-name="Group 591" transform="translate(109.647 28.069)">
        <path id="Path_643" data-name="Path 643" d="M348.7,314.283h0c-.247,1.11-.987,3.085-.123,3.825.74.617,2.591.123,3.455-.37a86.662,86.662,0,0,0,8.883-6.663,36.537,36.537,0,0,1-.617-4.688c0-1.727.247-6.909-1.11-7.279-.74-.247-3.825.74-4.442,1.11-1.6.74-4.442,4.442-5.305,5.922C348.454,307.621,349.194,312.309,348.7,314.283Z" transform="translate(-348.17 -299.068)" fill="#feb292"/>
      </g>
      <path id="Path_644" data-name="Path 644" d="M359.916,302.8s-4.565,5.675-8.637,5.059c-3.948-.617-2.1-2.591-2.1-2.591Z" transform="translate(-238.387 -270.127)" fill="#fca39a"/>
      <path id="Path_645" data-name="Path 645" d="M342.81,298.6a34.509,34.509,0,0,0,0,3.578l1.11.123.493-3.084Z" transform="translate(-239.788 -271.109)" fill="#1a2632"/>
      <path id="Path_646" data-name="Path 646" d="M341.39,298.15c-.247.494-.864,1.357-.123,1.727a13.376,13.376,0,0,0,2.344.987,21.45,21.45,0,0,1-.247,3.578c-.247,1.481-.617,2.961.247,4.565.74,1.234,6.662,1.481,7.65,1.357a10.488,10.488,0,0,0,9.253-6.662c.494-1.234-.617,1.11,0,0,1.11-1.851,3.578-2.1,3.825-4.195.247-2.838.617-5.8-.37-8.513-1.234-3.455-4.195-5.922-7.4-7.65a12.653,12.653,0,0,0-4.688-1.727,6.507,6.507,0,0,0-4.812.987c-1.357.987-1.234-.74-1.727,3.085,0,0-.493,3.7-.74,6.046C344.721,293.091,343.488,294.7,341.39,298.15Z" transform="translate(-240.219 -275.1)" fill="#feb292"/>
      <g id="Group_592" data-name="Group 592" transform="translate(102.699)">
        <path id="Path_647" data-name="Path 647" d="M351.375,287.277a2.83,2.83,0,0,1-1.851,2.221,5.954,5.954,0,0,1-2.961.247,4.386,4.386,0,0,1-3.578-1.727,3.806,3.806,0,0,1,.247-3.948,3.4,3.4,0,0,1,3.7-1.357,4.8,4.8,0,0,1,1.727-5.552,4.641,4.641,0,0,1,5.8.37,3.271,3.271,0,0,1,.617.74,2.421,2.421,0,0,1-.123,1.851c.37-1.6,2.221-2.344,3.825-2.344a6,6,0,0,1,4.688,1.481,3.778,3.778,0,0,1,.864,4.565,15.184,15.184,0,0,1,4.072-.37,5.013,5.013,0,0,1,4.195,3.7A3.973,3.973,0,0,1,370,291.842a11.916,11.916,0,0,1,3.331,2.714,4.085,4.085,0,0,1,.74,4.072,3.764,3.764,0,0,1-2.344,1.974,5.269,5.269,0,0,1-3.084.123,5.81,5.81,0,0,1-.247,5.676,6.216,6.216,0,0,1-4.935,2.961,3.575,3.575,0,0,1-2.961-1.11,3.649,3.649,0,0,1-.74-2.468,3.736,3.736,0,0,0,2.468-1.851,2.627,2.627,0,0,0-.37-2.961,2.117,2.117,0,0,0-2.838-.37c.123-2.714.247-5.429.247-8.143a3.868,3.868,0,0,1-3.825.74,5.485,5.485,0,0,1-3.208-1.974,3.968,3.968,0,0,1-.617-3.7" transform="translate(-342.538 -276.318)" fill="url(#linear-gradient-9)"/>
      </g>
      <ellipse id="Ellipse_37" data-name="Ellipse 37" cx="0.617" cy="0.987" rx="0.617" ry="0.987" transform="translate(109.471 23.349) rotate(-162.705)" fill="#29235c"/>
      <path id="Path_648" data-name="Path 648" d="M356.1,295.769a3.8,3.8,0,0,1,5.429-.493c3.208,2.344.247,8.266-4.688,6.416l1.727-5.552Z" transform="translate(-236.668 -272.103)" fill="#0b1116" opacity="0.46"/>
      <g id="Group_593" data-name="Group 593" transform="translate(118.285 22.739)">
        <path id="Path_649" data-name="Path 649" d="M361.252,295.676a3.661,3.661,0,0,1,.617,3.7,4.215,4.215,0,0,1-3.085,2.468,4.1,4.1,0,0,1-3.578-1.11c-.247-.247.864-2.344.74-2.961a8.061,8.061,0,0,1,0-1.727h0C356.811,294.072,360.389,294.689,361.252,295.676Z" transform="translate(-355.171 -294.748)" fill="#feb292"/>
      </g>
      <path id="Path_650" data-name="Path 650" d="M356.222,305.209c-.123-.123-.493-.123-.74-.123h0s-6.046.37-6.663-.37.617-2.1.617-3.331h0a3.038,3.038,0,0,0-.123-1.481,3.84,3.84,0,0,0-2.838-2.468,8.146,8.146,0,0,0-1.727.123c-.493,0-.493-.493-1.234-.247-.74.37-.864,2.221-.37,2.468,2.468.864,3.455.37,3.578.617.247.247.37.37.247.74a1.659,1.659,0,0,1-.74.864,2.754,2.754,0,0,1-2.591.247c-.247-.123-.617-.247-.74,0-.123.123-.123.123-.123.247s-.123.37-.123.493c-.247.864-.493,1.974.123,2.714a2.289,2.289,0,0,0,1.481.864,10.855,10.855,0,0,0,1.851.617,6.007,6.007,0,0,0,1.481.123h2.344a13.429,13.429,0,0,0,3.825-.37,17.484,17.484,0,0,0,2.221-.987C356.345,305.7,356.469,305.456,356.222,305.209Z" transform="translate(-239.875 -271.426)" fill="url(#linear-gradient-10)"/>
      <path id="Path_651" data-name="Path 651" d="M347.1,293.919s1.234-.74,2.591,1.11c0,0-.493-1.481-1.234-1.727A1.476,1.476,0,0,0,347.1,293.919Z" transform="translate(-238.773 -272.35)" fill="#29235c"/>
      <g id="Group_594" data-name="Group 594" transform="translate(107.425 16.634)">
        <path id="Path_652" data-name="Path 652" d="M346.531,291.4a2.7,2.7,0,0,0,.617.37,24.717,24.717,0,0,0,2.961.494,4.262,4.262,0,0,1,2.591,1.481c.123.123.123.247.247.37a.375.375,0,0,0,.493,0c.123-.123.123-.247.123-.493a3.533,3.533,0,0,0-1.974-2.591,13.846,13.846,0,0,0-3.208-.987c-.37-.123-.74-.123-1.11-.247h-.493C346.284,290.047,346.284,291.157,346.531,291.4Z" transform="translate(-346.369 -289.8)" fill="#29235c"/>
      </g>
    </g>
    <g id="Group_623" data-name="Group 623" transform="translate(217.377 338.671)">
      <path id="Path_653" data-name="Path 653" d="M239.552,350.9v34.053H214.876v34.053H190.2v34.053H313.7V350.9Z" transform="translate(-167.992 -174.097)" fill="#88c249"/>
      <g id="Group_622" data-name="Group 622">
        <g id="Group_596" data-name="Group 596" transform="translate(79.395 161.277)">
          <path id="Path_654" data-name="Path 654" d="M252.034,352.362h0c3.208.864,6.663,1.234,9.624,2.714.74.37,1.481.987,1.234,1.851-.123.74-.987.987-1.6,1.11a54.132,54.132,0,0,1-18.384.864,1.783,1.783,0,0,1-.864-.247,2,2,0,0,1-.617-1.11,44.276,44.276,0,0,1-.987-4.318c-.247-1.6-4.442-12.461-3.825-13.942C239.079,334.1,248.456,351.375,252.034,352.362Z" transform="translate(-236.55 -338.316)" fill="#fcbd3f"/>
        </g>
        <g id="Group_597" data-name="Group 597" transform="translate(22.303 224.196)">
          <path id="Path_655" data-name="Path 655" d="M204.247,404.72h0c3.084,1.234,6.539,1.851,9.377,3.7.617.494,1.357,1.234,1.11,1.974-.247.617-1.11.864-1.727.987a54.166,54.166,0,0,1-18.384-.987c-.37-.123-.617-.123-.864-.37a1.431,1.431,0,0,1-.494-1.234,27.269,27.269,0,0,1-.494-4.318c-.123-1.6-3.208-12.832-2.344-14.312C193.143,385.226,200.793,403.362,204.247,404.72Z" transform="translate(-190.277 -389.312)" fill="#fcbd3f"/>
        </g>
        <g id="Group_598" data-name="Group 598" transform="translate(2.832 94.349)">
          <path id="Path_656" data-name="Path 656" d="M252.724,290.893c4.442,7.526,5.552,35.9,6.909,53.423.123,1.234,2.344,10.24,1.974,11.351-1.481,3.948-7.279,3.7-10.364,6.539-3.825-14.065-9.87-36.15-13.7-50.216a2.633,2.633,0,0,0-.864-1.481,1.721,1.721,0,0,0-1.357,0,265,265,0,0,1-31.092,4.195,49.055,49.055,0,0,1-8.513.123,27.4,27.4,0,0,1-19.864-11.6,7.64,7.64,0,0,1-1.357-3.084c-.123-2.221,1.727-3.948,3.455-5.305,5.675-4.195,12.338-7.033,18.877-9.747C203.5,282.5,249.146,284.971,252.724,290.893Z" transform="translate(-174.495 -284.07)" fill="url(#linear-gradient-11)"/>
        </g>
        <g id="Group_599" data-name="Group 599" transform="translate(0.214 102.826)">
          <path id="Path_657" data-name="Path 657" d="M189.433,348.509h0c1.974,3.455,2.591,8.76,3.825,12.585,3.208,10.364-.123,19.494-1.357,30.351-.617,6.046-.247,21.962,1.357,27.884a3.4,3.4,0,0,0,.987,1.851,3.139,3.139,0,0,0,1.851.37c3.948.123,7.9.247,11.968.493.617-16.9,1.234-43.8,3.825-60.579.617-4.195,1.481-8.513,1.357-12.708a73.685,73.685,0,0,0-1.727-11.474c-2.221-10.241-4.565-20.481-6.786-30.722-.74-3.331-1.6-6.909-4.072-9.377-1.974-1.974-4.812-2.961-7.526-3.7-4.318-1.234-15.422-4.442-19.494-.987-3.331,2.838.864,12.708,1.727,16.533C178.328,322.476,182.4,336.171,189.433,348.509Z" transform="translate(-172.373 -290.941)" fill="url(#linear-gradient-12)"/>
        </g>
        <g id="Group_600" data-name="Group 600" transform="translate(25.303 45.4)">
          <path id="Path_658" data-name="Path 658" d="M228.6,260.564a24.945,24.945,0,0,0,7.65,2.838c3.7.493,8.513,0,12.215-.123,6.416-.37,16.163-.493,16.78,0a2.942,2.942,0,0,1,.74,1.357c.74,2.1,1.6,4.195,2.344,6.292a106.638,106.638,0,0,1-26.033,5.552c-4.688.493-9.87-.123-13.7-2.1-10.241-4.935-21.468-7.526-31.709-12.461-2.1-.987-3.331-4.688-3.948-6.786-.74-2.1.37-4.442,1.727-6.169h0c1.481-1.851,3.208-4.688,5.675-4.565s7.033,4.442,9.253,5.675C215.77,253.778,222.063,257.356,228.6,260.564Z" transform="translate(-192.708 -244.397)" fill="#88c249"/>
        </g>
        <g id="Group_601" data-name="Group 601" transform="translate(0 39.514)">
          <path id="Path_659" data-name="Path 659" d="M208.844,304.368h0a5.435,5.435,0,0,1-.247,3.7,5.816,5.816,0,0,1-2.344,1.851,42.235,42.235,0,0,1-31.955,2.221,2,2,0,0,1-1.11-.617c-.37-.37-.37-1.11-.493-1.6-.37-6.786-.494-13.7-.494-20.481a117.038,117.038,0,0,1,.74-14.682c1.234-10.734,3.455-18.754,8.76-28.131a12.541,12.541,0,0,1,2.344-3.578c.493-.493,4.195-2.1,5.059-2.961,2.1-1.974,3.084,2.961,5.675,4.072,3.208,1.481,5.059,1.357,8.39,1.481s2.591-.37,2.591,3.085c0,3.578-.494,7.279-.494,10.857A248.292,248.292,0,0,0,208.844,304.368Z" transform="translate(-172.2 -239.626)" fill="url(#linear-gradient-13)"/>
        </g>
        <g id="Group_607" data-name="Group 607" transform="translate(0 41.332)">
          <g id="Group_606" data-name="Group 606" clip-path="url(#clip-path)">
            <path id="Path_660" data-name="Path 660" d="M197.519,245.172v-.37a.63.63,0,1,1,1.234.247,1.112,1.112,0,0,1-.123.617,180.975,180.975,0,0,0-.617,32.7c.617,10.611,3.085,20.975,5.059,31.462a.621.621,0,1,1-1.234.123c-1.974-10.734-4.442-21.468-5.059-32.449-.494-9.747-.74-19.741.37-29.488" transform="translate(-166.551 -240.36)" fill="#fff"/>
            <g id="Group_605" data-name="Group 605" transform="translate(9.87 11.351)">
              <g id="Group_602" data-name="Group 602" transform="translate(4.565)">
                <path id="Path_661" data-name="Path 661" d="M184.394,252.891h0c.37,0,.617-.123.617-.493a13.962,13.962,0,0,1,.247-1.481.559.559,0,0,0-1.11-.123,13.951,13.951,0,0,0-.247,1.481A.82.82,0,0,0,184.394,252.891Z" transform="translate(-183.9 -250.3)" fill="#fff"/>
              </g>
              <g id="Group_603" data-name="Group 603" transform="translate(0 4.442)">
                <path id="Path_662" data-name="Path 662" d="M180.2,306.09v-3.084a.494.494,0,0,1,.987,0v3.084a.531.531,0,0,1-.494.493h-.123C180.447,306.46,180.2,306.336,180.2,306.09Zm0-6.169a26.831,26.831,0,0,1,.123-3.084.494.494,0,0,1,.987,0c0,.987-.123,2.1-.123,3.084a.531.531,0,0,1-.494.493h-.123A.551.551,0,0,1,180.2,299.921Zm.247-6.046c0-.987.123-1.974.123-3.084a.494.494,0,0,1,.987,0,24.775,24.775,0,0,0-.123,3.084.531.531,0,0,1-.493.493h-.123A.551.551,0,0,1,180.447,293.875Zm.37-6.046c.123-.987.123-1.974.247-3.085a.559.559,0,1,1,1.11.123c-.123.987-.123,1.974-.247,3.084a.564.564,0,0,1-.617.493h-.123A1.049,1.049,0,0,1,180.817,287.829Zm.494-6.169c.123-.987.123-1.974.247-3.085a.559.559,0,1,1,1.11.123,24.035,24.035,0,0,0-.247,3.084.564.564,0,0,1-.617.493h0A.82.82,0,0,1,181.31,281.66Zm.617-6.046c.123-.987.247-1.974.37-3.084a.559.559,0,0,1,1.11.123c-.123.987-.247,1.974-.37,3.085a.564.564,0,0,1-.617.493h0A.63.63,0,0,1,181.927,275.615Zm.617-6.046c.123-.987.247-2.1.37-3.084a.559.559,0,0,1,1.11.123c-.123.987-.247,1.974-.37,3.084a.564.564,0,0,1-.617.493h0A.63.63,0,0,1,182.544,269.569Zm.74-6.046c.123-1.11.247-2.1.37-3.085a.559.559,0,1,1,1.11.123l-.37,2.961a.564.564,0,0,1-.617.494h0A.452.452,0,0,1,183.284,263.524Zm.74-6.046c.123-1.11.247-2.1.37-3.084a.559.559,0,0,1,1.11.123q-.185,1.3-.37,2.961a.564.564,0,0,1-.617.494h0A.452.452,0,0,1,184.025,257.478Z" transform="translate(-180.2 -253.9)" fill="#fff"/>
              </g>
              <g id="Group_604" data-name="Group 604" transform="translate(0.247 59.099)">
                <path id="Path_663" data-name="Path 663" d="M180.894,300.791h.123a.565.565,0,0,0,.494-.617c0-.493-.123-.987-.123-1.481a.494.494,0,0,0-.987,0c0,.493.123,1.11.123,1.6C180.4,300.544,180.647,300.668,180.894,300.791Z" transform="translate(-180.4 -298.2)" fill="#fff"/>
              </g>
            </g>
          </g>
        </g>
        <g id="Group_608" data-name="Group 608" transform="translate(97.89 62.554)">
          <path id="Path_665" data-name="Path 665" d="M258.153,258.3a10.113,10.113,0,0,1,7.033,2.961c.37.37.74,1.11.247,1.481a.453.453,0,0,1-.37.123,6.725,6.725,0,0,1-2.714.123c-1.481-.247-3.085-.74-4.195.123a5.533,5.533,0,0,0-1.234,1.6,5.583,5.583,0,0,1-3.085,2.221c-.123,0-.37.123-.494,0a.964.964,0,0,1-.494-.494h0c-.74-1.357-1.974-4.688-.864-6.046C253.218,258.917,256.3,258.3,258.153,258.3Z" transform="translate(-251.54 -258.3)" fill="#f9b4aa"/>
        </g>
        <g id="Group_609" data-name="Group 609" transform="translate(44.91 28.747)">
          <path id="Path_666" data-name="Path 666" d="M280.407,320.721,208.6,306.162l15.052-74.151,5.675-1.11,66.132,15.669-8.883,70.7Z" transform="translate(-208.6 -230.9)" fill="#07a6d1"/>
          <rect id="Rectangle_55" data-name="Rectangle 55" width="73.164" height="73.164" transform="translate(20.852 0) rotate(11.478)" fill="#10bcf9"/>
        </g>
        <g id="Group_610" data-name="Group 610" transform="translate(76.657 76.974)">
          <path id="Path_667" data-name="Path 667" d="M240.955,270a9.661,9.661,0,0,1,7.033,2.221c.37.37.864.987.617,1.481-.123.247-.494.37-.864.494-2.344.493-4.935-1.11-7.033,0-.864.493-1.481,1.357-2.344,1.851h0c-2.1.987-4.812-1.234-3.825-3.455C235.28,270.62,238.981,270.126,240.955,270Z" transform="translate(-234.331 -269.988)" fill="#feb292"/>
        </g>
        <g id="Group_611" data-name="Group 611" transform="translate(9.767 49.814)">
          <path id="Path_668" data-name="Path 668" d="M192.187,248.746c-3.331-1.357-7.526-.987-9.994,1.6-2.1,2.221-2.468,5.675-1.727,8.513a21.494,21.494,0,0,0,4.318,7.9c7.526,9.87,16.9,18.013,26.157,26.28,1.481,1.234,3.085,2.591,4.935,2.714a8.85,8.85,0,0,0,3.578-.74c9.007-3.208,17.89-6.416,26.9-9.624,2.1-.74,4.442-1.851,4.935-3.948.617-2.468-2.714-5.8-4.565-5.8a46.3,46.3,0,0,0-7.526.987c-6.909.987-21.1,3.7-22.7,2.961-1.357-.617-10.857-11.721-13.572-18.013C200.577,256.149,197.863,251.091,192.187,248.746Z" transform="translate(-180.116 -247.974)" fill="#88c249"/>
        </g>
        <g id="Group_612" data-name="Group 612" transform="translate(14.929 28.007)">
          <path id="Path_669" data-name="Path 669" d="M189.605,230.3c1.234,1.234-3.208,11.351-5.305,13.2,1.974,2.1,16.78,7.156,18.26,3.455-2.961-7.65.37-7.156,1.851-8.883-3.578-3.578-9.253-7.033-14.189-7.65" transform="translate(-184.3 -230.3)" fill="#feb292"/>
        </g>
        <g id="Group_613" data-name="Group 613" transform="translate(18.26 29.769)">
          <path id="Path_670" data-name="Path 670" d="M200.819,241.317c-1.851-.37-8.39-4.195-10.487-3.085-.864.494-3.331.123-3.331-.37,0-.37,1.481-5.059,1.357-5.8,0-1.234,3.208,1.357,4.318.987a3.034,3.034,0,0,1,2.1-.123c1.11.37,2.1.247,2.714,1.234.74,1.481,1.357.864,2.838,1.234a17.649,17.649,0,0,1,3.455,2.838A3.11,3.11,0,0,0,200.819,241.317Z" transform="translate(-187 -231.728)" fill="#fca39a"/>
        </g>
        <path id="Path_671" data-name="Path 671" d="M212.857,232.892c.247.617,1.11,2.1,0,2.714-.864.493-1.974,0-3.084,0a14.443,14.443,0,0,1-.74,2.961,11.112,11.112,0,0,0-.987,3.455,4.658,4.658,0,0,1-2.838,2.961c-3.208.987-10.117-2.344-13.078-4.935-2.591-2.221-.123-5.182-.247-6.416-.123-2.468-3.948-1.974-3.578-4.318.37-3.208.74-6.539,2.468-9.13,2.1-3.455,6.046-5.305,9.87-6.539a16.054,16.054,0,0,1,5.429-.74c1.851.123,1.727.37,2.961,1.851,1.234,1.357,3.084,8.513,2.714,11.228C211.5,228.45,211.007,228.821,212.857,232.892Z" transform="translate(-168.441 -206.365)" fill="#feb292"/>
        <g id="Group_614" data-name="Group 614" transform="translate(25.046 17.026)">
          <path id="Path_672" data-name="Path 672" d="M193.61,226.212h-.247c-.123-.123-.247-.247-.247-.37-.247-1.481-.247-2.961-.617-4.442a10.955,10.955,0,0,0,2.838.123.742.742,0,0,1,.494.123.431.431,0,0,1,.123.247c.247.864.864,2.591.494,3.455C195.955,226.212,194.474,226.088,193.61,226.212Z" transform="translate(-192.5 -221.4)" fill="#bd96c0"/>
        </g>
        <path id="Path_673" data-name="Path 673" d="M204.5,232.8" transform="translate(-164.648 -201.708)" fill="none" stroke="#263644" stroke-miterlimit="10" stroke-width="1"/>
        <ellipse id="Ellipse_38" data-name="Ellipse 38" cx="0.864" cy="1.11" rx="0.864" ry="1.11" transform="translate(37.109 20.723) rotate(11.484)" fill="#29235c"/>
        <path id="Path_674" data-name="Path 674" d="M204.531,225.486s-.987-1.6-3.331-.37c0,0,1.481-1.357,2.344-1.11C204.285,224.252,204.531,225.486,204.531,225.486Z" transform="translate(-165.42 -203.771)" fill="#29235c"/>
        <g id="Group_615" data-name="Group 615" transform="translate(33.066 17.273)">
          <path id="Path_675" data-name="Path 675" d="M208.13,221.723a2.027,2.027,0,0,1-.247,1.727c-.37.37-.987.247-1.481.247a14.7,14.7,0,0,0-6.539.74c-.123,0-.37.123-.494.123-.247,0-.37-.247-.37-.493s.123-.37.247-.617a3.158,3.158,0,0,1,1.6-1.234,5.588,5.588,0,0,1,1.974-.37c1.6-.123,3.331-.247,5.059-.247Z" transform="translate(-199 -221.6)" fill="#29235c"/>
        </g>
        <path id="Path_676" data-name="Path 676" d="M185.09,240.6s-3.085.617-.494,3.7c1.6,1.974,11.228,5.8,14.189,5.552s2.961-4.195,2.961-4.195,1.481,2.221,1.974,2.221,0-3.455-.74-3.7C202.363,243.808,203.227,250.1,185.09,240.6Z" transform="translate(-169.544 -199.885)" fill="#af0848"/>
        <g id="Group_617" data-name="Group 617" transform="translate(12.926)">
          <g id="Group_616" data-name="Group 616">
            <path id="Path_677" data-name="Path 677" d="M182.706,226.971a26.452,26.452,0,0,0,1.974,6.046,21.094,21.094,0,0,0,2.1,4.072,10.849,10.849,0,0,1,.74,1.234,7.15,7.15,0,0,0,1.727,2.1,4.249,4.249,0,0,0,2.468.494,3.415,3.415,0,0,0,1.11-.123c0,.247.123.617.123.864a4.648,4.648,0,0,0,2.468,2.1c1.481.74,2.961,1.481,4.565,2.221,2.221,1.11,4.688,2.344,7.279,1.851a6.217,6.217,0,0,0,4.935-6.169,4.689,4.689,0,0,0-3.084-4.318c-1.727-.494-3.455.37-5.182,0a5.253,5.253,0,0,1-3.331-2.961,10.938,10.938,0,0,1-.864-3.455V230.8c.247-.617-.37-3.455-.864-5.552,2.961-.864,6.046-.74,9.13-.864,3.331-.123,7.033-.74,9.377-3.085,1.357-1.357,1.6-5.305,1.234-7.279-.74-3.948-5.552-6.416-8.02-6.416-7.156.247-10.241,7.65-13.078,8.76-5.8,2.1-7.526.247-11.721,3.825C183.816,222.035,182.459,224.38,182.706,226.971Zm9.5,3.331a12.711,12.711,0,0,1,3.084-3.208c.247,1.481.37,2.961.617,4.318h0a18.584,18.584,0,0,1-2.1,6.046c-.123-1.6,0-3.455-.617-4.935A8.765,8.765,0,0,0,192.206,230.3Z" transform="translate(-182.677 -207.6)" fill="url(#linear-gradient-14)"/>
          </g>
        </g>
        <g id="Group_619" data-name="Group 619" transform="translate(19.062 16.311)" opacity="0.46">
          <g id="Group_618" data-name="Group 618">
            <path id="Path_678" data-name="Path 678" d="M189.192,221.536a4,4,0,0,0-1.481,3.948,4.17,4.17,0,0,0,2.838,3.208,4.311,4.311,0,0,0,4.195-.74c.247-.247.617-.617.493-.987a1.7,1.7,0,0,0-.37-.494,1.968,1.968,0,0,1-.247-1.851,9.352,9.352,0,0,0,.37-1.974h0C194.5,220.3,190.426,220.549,189.192,221.536Z" transform="translate(-187.65 -220.82)" fill="#0b1116"/>
          </g>
        </g>
        <g id="Group_621" data-name="Group 621" transform="translate(19.679 16.843)">
          <g id="Group_620" data-name="Group 620">
            <path id="Path_679" data-name="Path 679" d="M189.692,221.928a4,4,0,0,0-1.481,3.948,4.17,4.17,0,0,0,2.838,3.208,4.311,4.311,0,0,0,4.195-.74c.247-.247.617-.617.494-.987a1.7,1.7,0,0,0-.37-.493,1.968,1.968,0,0,1-.247-1.851,9.351,9.351,0,0,0,.37-1.974h0C195.121,220.818,190.926,220.941,189.692,221.928Z" transform="translate(-188.15 -221.251)" fill="#feb292"/>
          </g>
        </g>
      </g>
    </g>
    <g id="Group_638" data-name="Group 638" transform="translate(320.769 183.342)">
      <g id="Group_637" data-name="Group 637" transform="translate(0 131.887)">
        <g id="Group_624" data-name="Group 624" transform="translate(66.346 13.391)">
          <path id="Path_680" data-name="Path 680" d="M343.736,202.1c-4.565-.617-15.176-1.481-18.26-1.727-1.6-.123-3.208-.617-4.935-.74-3.7-.37-5.429-.37-8.39,1.974-.864.617-2.961,4.442-2.221,5.305.864.987,1.974.123,3.084-.617,1.974-1.234,6.416-.74,5.676,0-1.974,1.851-1.234,2.838-.123,2.468a12.623,12.623,0,0,0,2.714-1.727c3.578-2.344,8.513-.37,12.708.247,10.981,1.851,21.221,5.552,32.449,6.169,1.481.123.987-.493,2.1-1.481,5.182-4.318.247-6.416-2.1-6.909C360.762,203.953,346.943,202.6,343.736,202.1Z" transform="translate(-309.774 -199.454)" fill="#feb292"/>
        </g>
        <g id="Group_625" data-name="Group 625">
          <path id="Path_681" data-name="Path 681" d="M322.008,188.6h56.508l-28.254,48.982-28.254,49.105-9.377,6.292-19-55.4L256,194.892l9.377-6.292Z" transform="translate(-256 -188.6)" fill="#93033e"/>
          <path id="Path_682" data-name="Path 682" d="M312.631,193.7h56.631l-28.254,49.105-28.377,48.982-28.254-48.982L256,193.7Z" transform="translate(-256 -187.408)" fill="#618f30"/>
        </g>
        <g id="Group_626" data-name="Group 626" transform="translate(57.445 46.916)">
          <path id="Path_683" data-name="Path 683" d="M344.065,236.464h0c-7.156-1.481-14.435-2.961-21.591-4.565-1.481-.37-6.416-1.11-8.513-2.838-1.6-1.234-5.182-2.838-5.675-2.344-.864,1.11,1.234,1.357,1.357,2.221-1.481.864-4.072-.494-5.675-.123-1.851.494-1.727,2.961-.493,4.442a5.537,5.537,0,0,0,4.442,2.468,25.237,25.237,0,0,0,5.305.123c12.955-.37,24.553,9.377,37.507,8.513,2.591-.123,5.675-1.6,5.552-4.195C356.156,227.7,347.15,237.081,344.065,236.464Z" transform="translate(-302.559 -226.626)" fill="#feb292"/>
        </g>
        <path id="Path_684" data-name="Path 684" d="M341.542,232.9l-1.481.617s-2.838,7.4-.37,9.5h2.591l.617-8.143Z" transform="translate(-236.669 -178.243)" fill="#fca39a"/>
        <g id="Group_627" data-name="Group 627" transform="translate(285.772 53.249)">
          <path id="Path_685" data-name="Path 685" d="M493.641,231.933a.816.816,0,0,1,.74-.123.964.964,0,0,1,.494.494c.617.987,1.11,1.974,1.727,2.961a2.288,2.288,0,0,1,.247.864c0,.247-.247.493-.493.74a14.523,14.523,0,0,1-5.182,2.961,1.83,1.83,0,0,1-.864.123,1.3,1.3,0,0,1-1.11-.617h0C484.758,235.511,490.8,233.167,493.641,231.933Z" transform="translate(-487.62 -231.759)" fill="#f9b4aa"/>
        </g>
        <g id="Group_628" data-name="Group 628" transform="translate(250.974 124.834)">
          <path id="Path_686" data-name="Path 686" d="M467.786,290.422c.247,0,.37,0,.494.123.37.247.37.617.37,1.11a30.066,30.066,0,0,1-.123,3.331c0,.247,0,.494-.247.617a.453.453,0,0,1-.37.123,32.775,32.775,0,0,1-7.773-.123c-.123,0-.37,0-.37-.123a.453.453,0,0,1-.123-.37h0c-.123-2.1-.864-4.318,1.234-5.059C462.481,289.311,466.059,290.3,467.786,290.422Z" transform="translate(-459.416 -289.779)" fill="#f9b4aa"/>
        </g>
        <g id="Group_629" data-name="Group 629" transform="translate(291.466 51.071)">
          <path id="Path_687" data-name="Path 687" d="M497.25,230a2.217,2.217,0,0,1,1.11.494c2.221,1.727,3.331,4.565,5.059,6.786,1.481,1.851,3.7,3.455,3.7,5.8a.755.755,0,0,1-1.357.617c-3.331-2.221-6.663-4.565-9.994-6.786h0c-1.481-.987-4.318-2.714-3.331-4.812C492.809,231.112,496.263,229.878,497.25,230Z" transform="translate(-492.235 -229.993)" fill="#10bcf9"/>
        </g>
        <g id="Group_630" data-name="Group 630" transform="translate(257.45 124.912)">
          <path id="Path_688" data-name="Path 688" d="M471,291.024a1.661,1.661,0,0,1,.617,1.11c.864,2.714,0,5.552.247,8.39.123,2.344.987,4.935-.37,6.909a1.249,1.249,0,0,1-.864.494c-.37,0-.494-.494-.74-.74-1.357-3.825-2.838-7.526-4.195-11.351h0c-.617-1.6-1.974-4.688,0-5.8C466.682,289.42,470.26,290.407,471,291.024Z" transform="translate(-464.664 -289.842)" fill="#10bcf9"/>
        </g>
        <g id="Group_631" data-name="Group 631" transform="translate(152.674 45.509)">
          <path id="Path_689" data-name="Path 689" d="M386.352,232.289c8.143-7.4,20.6-8.143,31.215-5.182s19.988,9.007,29.735,14.189c5.675,2.961,10.117,7.526,16.533,7.279,4.195-.123,11.845-5.8,15.669-7.156,11.721-4.195,21.715-6.416,34.176-6.663a4.661,4.661,0,0,1,2.591.494c1.851,1.357,3.455,4.688,2.1,6.539-5.182,7.279-15.423,11.844-23.689,15.176s-17.026,4.935-25.91,6.169a40,40,0,0,1-7.65.617c-3.578-.123-13.448-1.11-16.9-1.727-9.994-1.727-27.884-8.266-34.176-9.253,4.072,2.344,8.02,11.351,10.734,19.124,2.468,7.033,9.377,18.877,11.844,22.085,1.357,1.851,3.084,3.825,5.305,3.578,11.6-1.11,23.2,1.11,34.67,2.838,11.351,1.727,9.747,6.416,8.883,11.474-12.831,4.072-27.39,3.825-40.715,1.727-15.793-2.468-17.767-4.318-23.072-8.02-5.059-3.331-9.254-7.9-13.078-12.708a211.285,211.285,0,0,1-19.247-30.475c-2.591-4.812-5.059-9.747-5.552-15.176s1.6-11.351,6.416-14.065" transform="translate(-379.743 -225.485)" fill="#fcbd3f"/>
        </g>
        <g id="Group_632" data-name="Group 632" transform="translate(103.657 18.183)">
          <path id="Path_690" data-name="Path 690" d="M378.861,207.363l1.481.864a6.565,6.565,0,0,1,2.714,2.468c.864,1.6,7.4,10.487,11.474,12.215,5.8,2.468,9.253,4.935,15.546,4.318a11.743,11.743,0,0,1,3.578-.123,3.281,3.281,0,0,1,2.714,2.1,2.9,2.9,0,0,1-1.481,3.208,9.516,9.516,0,0,1-3.578,1.234,4.918,4.918,0,0,1,1.234,5.429,4.638,4.638,0,0,1-4.812,2.714,5.989,5.989,0,0,1,.247,6.539,5.575,5.575,0,0,1-6.046,2.344,4.815,4.815,0,0,1-.247,5.8,4.524,4.524,0,0,1-5.675.864c.987,2.591.864,6.169-1.727,7.156-1.6.617-3.331-.37-4.442-1.6a21.913,21.913,0,0,1-2.344-4.442c-2.591-6.046-6.169-8.02-13.078-11.1-2.961-1.234-13.448-3.331-17.52-1.234-2.714,1.357-10.117,4.565-13.7,4.935s-3.578-2.961-2.714-6.786c.617-2.591-.617-5.429,5.059-6.416a37.46,37.46,0,0,0,10.117-3.331,9.044,9.044,0,0,0,2.468-2.344c3.578-8.883-5.429-9.747,8.39-18.754-2.221-.864-4.688-.247-7.033-.494-3.578-.493-1.234-3.578,0-6.663,1.234-2.961,2.1-3.208,5.305-2.714C370.348,203.908,373.926,204.525,378.861,207.363Z" transform="translate(-340.015 -203.337)" fill="#f27f20"/>
        </g>
        <g id="Group_633" data-name="Group 633" transform="translate(139.232 23.101)">
          <path id="Path_691" data-name="Path 691" d="M374.958,266.764c5.8,1.6,12.461-3.948,16.286-7.65a70.171,70.171,0,0,0,13.325-19.864c3.084-6.539,5.675-14.682,4.071-21.962-1.234-5.552-5.8-10.734-11.968-9.87-6.909.987-11.6,9.5-15.176,14.806a82.771,82.771,0,0,0-9.87,19.494c-2.344,7.4-6.169,21.221,3.331,25.046,3.7,1.481,5.305-4.442,1.6-5.922-4.195-1.727.123-14.559,1.11-17.4,2.838-8.76,8.02-16.9,13.7-24.059.987-1.234,2.344-3.578,3.825-4.318,7.9-4.072,8.143,5.182,7.773,9.253-.494,5.552-2.714,10.734-5.305,15.546a74.512,74.512,0,0,1-8.02,12.215c-2.221,2.714-8.637,9.994-12.832,8.76C372.86,259.731,371.133,265.653,374.958,266.764Z" transform="translate(-368.848 -207.323)" fill="#618f30"/>
        </g>
        <g id="Group_634" data-name="Group 634" transform="translate(114.195 29.661)">
          <path id="Path_692" data-name="Path 692" d="M360.331,213.207h0a1.333,1.333,0,0,1,.864.37c.247.37,0,.74-.123,1.11-1.357,2.468-2.714,4.935-4.072,7.279a39.775,39.775,0,0,1-7.526-2.961,1.3,1.3,0,0,1-.864-.74c-.123-.247,0-.617,0-.864C350.338,210.863,355.026,212.837,360.331,213.207Z" transform="translate(-348.556 -212.641)" fill="#f9b4aa"/>
        </g>
        <g id="Group_635" data-name="Group 635" transform="translate(98.52 21.398)">
          <path id="Path_693" data-name="Path 693" d="M354.542,210.825h0a7.7,7.7,0,0,1,2.1,3.455,6.708,6.708,0,0,1-1.481,6.169,8.568,8.568,0,0,1-5.8,2.714,10.122,10.122,0,0,1-2.714-.247,14.751,14.751,0,0,1-9.007-4.812c-2.591-3.455-2.714-9.994,1.974-11.6C344.671,204.78,351.087,207.247,354.542,210.825Z" transform="translate(-335.851 -205.943)" fill="#f9b4aa"/>
        </g>
        <g id="Group_636" data-name="Group 636" transform="translate(85.617 16.3)">
          <path id="Path_694" data-name="Path 694" d="M326.389,222.4c2.344,5.429,7.526,9.007,12.461,12.215s10.117,6.786,12.461,12.215c1.6,3.825,1.481,8.143,2.961,11.844,2.838,6.786,10.117,10.487,16.9,13.448a8.4,8.4,0,0,0,3.825.987c2.961-.247,4.688-3.455,6.539-5.8a15.36,15.36,0,0,1,11.6-5.922c3.084-.123,6.046.617,9.007.493,6.169-.37,11.721-4.812,14.065-10.487s1.6-12.461-1.357-17.89a49.65,49.65,0,0,1-3.578-6.662c-1.727-4.442-.987-9.624-2.838-13.942-2.221-5.182-7.526-8.266-12.955-9.87a21.784,21.784,0,0,0-8.883-1.11c-3.578.494-6.786,2.221-10.241,3.208h0c-11.6,3.331-23.319-1.6-35.04-.617C332.681,205.252,322.07,212.161,326.389,222.4Z" transform="translate(-325.393 -201.811)" fill="url(#linear-gradient-15)"/>
        </g>
      </g>
      <path id="Path_695" data-name="Path 695" d="M395.674-.047c2.1,16.525,4.072,33.2,4.318,39.86.617,12.547-2.468,25.171-4.072,37.641-1.6,12.7-2.838,25.477-2.468,38.253.247,10.481,3.084,21.192,3.331,31.75-.123,0-.37-.077-.494-.077-12.215-.765-6.292,11.247-2.714,14.307a4.277,4.277,0,0,0,3.331.765,24.036,24.036,0,0,0,12.708,2.219c4.688-.306,9.624-1.53,10.117-4.82.494-3.137-3.948-5.355-8.76-5.279a42.843,42.843,0,0,0-6.539.612,5.019,5.019,0,0,0-.123-1.913,7.557,7.557,0,0,0-1.481-2.754c0-8.875-1.974-17.75-2.714-26.624a206.434,206.434,0,0,1,1.234-39.019c1.481-12.777,4.318-25.553,4.935-38.406.74-13.312-2.1-26.777-3.7-40.09-.247-2.142-.74-6.5-.74-6.58Zm-.617,152.4a2.35,2.35,0,0,1,1.727-.153c-.123,1.607-.247,3.29-.494,4.9-.247-.383-.494-.842-.74-1.224C395.3,155.185,394.193,152.661,395.057,152.355Zm11.1,8.722a13.149,13.149,0,0,1-4.442-.918v-.153a46.481,46.481,0,0,1,4.935-.918c.617-.077,1.11-.23,1.727-.306,2.1-.612,3.085,0,3.208,1.913C410.973,161.23,407.148,161.077,406.161,161.077Z" transform="translate(-224.916 0.2)" fill="#618f30"/>
    </g>
    <g id="Group_664" data-name="Group 664" transform="translate(110.88 227.589)">
      <path id="Path_696" data-name="Path 696" d="M113.664,209.233s-10.611-9.5-11.968-11.351-6.169,2.838-6.169,2.838l1.727,1.234S86.4,206.519,85.9,209.48s8.39-2.468,12.338-1.974c4.072.617,11.228,4.935,13.2,6.539S113.664,209.233,113.664,209.233Z" transform="translate(-85.884 -98.891)" fill="#29235c"/>
      <path id="Path_697" data-name="Path 697" d="M150.053,287.287s-4.688,13.448-5.922,15.3c-1.234,1.974,4.935,4.688,4.935,4.688l.494-2.1s8.39,8.266,11.351,7.526c2.838-.74-5.552-6.786-6.539-10.734s.247-12.338.987-14.682C155.975,285.066,150.053,287.287,150.053,287.287Z" transform="translate(-72.304 -78.118)" fill="#29235c"/>
      <g id="Group_639" data-name="Group 639" transform="translate(102.347 16.809)">
        <path id="Path_698" data-name="Path 698" d="M207.533,154.891h0c-3.825,3.948-9.253,6.539-14.806,6.169-2.1-.123-4.195-.617-6.169.123-1.727.74-2.838,2.344-3.825,3.825-1.11,1.6-2.221,3.331-3.331,4.935a12.2,12.2,0,0,1-3.085,3.578,4.475,4.475,0,0,1-4.442.617,5.064,5.064,0,0,1-2.221-2.591,12.647,12.647,0,0,1-.247-8.266,32.46,32.46,0,0,1,3.578-7.526,8.31,8.31,0,0,1,2.344-2.714,11.732,11.732,0,0,1,2.961-.864,12.111,12.111,0,0,0,3.948-1.6,18.935,18.935,0,0,0,5.8-6.662,77.376,77.376,0,0,1,4.442-7.65c1.727-2.344,4.195-4.442,7.156-4.935,3.578-.617,7.033.987,10.241,2.714a10.818,10.818,0,0,1,3.331,2.344c2.1,2.468.494,6.539-.37,9.13A22.132,22.132,0,0,1,207.533,154.891Z" transform="translate(-168.837 -131.191)" fill="url(#linear-gradient-16)"/>
      </g>
      <g id="Group_640" data-name="Group 640" transform="translate(143.773 24.44)">
        <path id="Path_699" data-name="Path 699" d="M226.209,161.958h0a14.553,14.553,0,0,0,4.565-.617,24.89,24.89,0,0,0,5.059-2.714,88.682,88.682,0,0,1,21.838-10.364A6.671,6.671,0,0,0,261,146.536a10.584,10.584,0,0,0,1.6-2.468,13.609,13.609,0,0,1,10.734-6.662,5.941,5.941,0,0,1,4.072.987c1.11.864,1.6,2.714.617,3.7-2.344-.37-4.935-.617-6.909.74-2.1,1.481-2.714,4.318-3.825,6.539-2.591,5.182-8.266,7.773-12.585,11.474-1.481,1.234-2.714,2.468-4.195,3.7-5.922,4.935-13.448,7.65-21.1,8.76s-15.3.864-23.072.494a4.12,4.12,0,0,1-2.714-.74,2.58,2.58,0,0,1-.864-1.6c-1.11-3.825.37-9.377,4.688-9.87C213.5,161.218,220.04,162.2,226.209,161.958Z" transform="translate(-202.413 -137.376)" fill="#f9b4aa"/>
      </g>
      <g id="Group_641" data-name="Group 641" transform="translate(184.719 19.534)">
        <path id="Path_700" data-name="Path 700" d="M377.98,201.752l-9.007,5.552-124.367-5.552L235.6,139.075l9.007-5.675H377.98Z" transform="translate(-235.6 -133.4)" fill="#5be8c3"/>
        <rect id="Rectangle_56" data-name="Rectangle 56" width="133.25" height="68.229" transform="translate(0 5.675)" fill="#80f9dc"/>
      </g>
      <path id="Path_701" data-name="Path 701" d="M205.257,169.561h2.1s3.578-6.046,3.208-8.883a11.045,11.045,0,0,0-.987-3.578l-1.851.123-3.825,8.02Z" transform="translate(-58.292 -108.325)" fill="#fca39a"/>
      <g id="Group_642" data-name="Group 642" transform="translate(135.738 42.99)">
        <path id="Path_702" data-name="Path 702" d="M201.575,152.891c2.714,1.357,8.513,3.578,9.13,5.059a6.986,6.986,0,0,1,.37,2.221,14.645,14.645,0,0,1-3.084,9.5,4.974,4.974,0,0,1-2.221,1.727,5.5,5.5,0,0,1-1.974-.123c-2.591-.617-5.305-1.727-6.909-3.948a4.382,4.382,0,0,1-.987-2.344,5.422,5.422,0,0,1,.864-2.714h0C199.231,158.073,196.64,150.423,201.575,152.891Z" transform="translate(-195.9 -152.411)" fill="url(#linear-gradient-17)"/>
      </g>
      <g id="Group_643" data-name="Group 643" transform="translate(23.058 88.204)">
        <path id="Path_703" data-name="Path 703" d="M166.543,192.195s4.935-2.1,1.851-2.344c-8.76-.74-11.721,9.624-15.176,23.689-2.221,8.76-6.416,13.2-9.747,21.715-.493,1.11-1.11,2.468-2.344,2.468-1.11,0-1.974-.987-2.591-1.974a90.315,90.315,0,0,0-15.422-18.137c-3.455-3.084-7.4-6.046-11.968-6.909-2.344-.493-5.305,0-6.292,2.221-.74,1.727.123,3.578.987,5.305a104.842,104.842,0,0,0,28.007,33.066c2.961,2.221,6.292,4.442,9.87,4.195,3.455-.247,6.292-2.591,8.883-4.812,12.461-10.611,24.676-21.468,34.546-34.546,2.714-3.7,5.429-7.65,6.046-12.215C195.414,189.233,175.8,185.655,166.543,192.195Z" transform="translate(-104.573 -189.057)" fill="url(#linear-gradient-18)"/>
      </g>
      <g id="Group_645" data-name="Group 645" transform="translate(22.935 89.166)">
        <g id="Group_644" data-name="Group 644" clip-path="url(#clip-path-2)">
          <path id="Path_704" data-name="Path 704" d="M137.5,244.914c-2.961-.74-6.292-2.838-10.241-7.156-9.5-10.364-21.838-27.514-21.962-27.76l1.234-.864c.123.123,12.338,17.273,21.838,27.637,9.377,10.241,14.559,7.4,20.851,2.221,3.825-3.084,13.7-17.643,20.851-28.254,9.747-14.312,9.747-14.189,10.734-13.819l-.617,1.357c.247.123.493,0,.617,0-.74.617-5.182,7.033-9.5,13.325-7.65,11.351-17.15,25.293-21.1,28.624C146.139,243.434,142.191,246.025,137.5,244.914Z" transform="translate(-104.279 -188.204)" fill="#fff"/>
        </g>
      </g>
      <g id="Group_646" data-name="Group 646" transform="translate(75.772 89.511)">
        <path id="Path_706" data-name="Path 706" d="M155.444,203.3c-2.344,5.922-1.974,12.461-1.6,18.754.617,9.994,1.357,19.988,3.578,29.611.987,4.442,2.468,9.007,1.851,13.572-.617,5.429-3.948,10.117-6.416,14.929a51.078,51.078,0,0,0-5.182,29.241,8.032,8.032,0,0,0,.987,3.455,3.074,3.074,0,0,0,3.208,1.357,4.356,4.356,0,0,0,2.1-1.851c8.637-12.215,14.559-26.157,18.877-40.469s7.033-28.994,9.747-43.8c1.357-7.156-1.357-17.4,1.727-25.416,8.637-22.579-.37-5.922-3.578-8.143h0C172.593,184.3,159.145,193.8,155.444,203.3Z" transform="translate(-147.298 -190.117)" fill="url(#linear-gradient-19)"/>
      </g>
      <g id="Group_648" data-name="Group 648" transform="translate(75.772 89.511)">
        <g id="Group_647" data-name="Group 647" clip-path="url(#clip-path-3)">
          <path id="Path_707" data-name="Path 707" d="M149.257,311.58l-1.357-.617c.123-.247,12.708-29.981,17.026-40.715,2.591-6.416,2.1-17.767,1.727-29.858-.247-7.65-.617-15.669,0-22.332,1.11-13.325,3.948-17.15,5.429-19.124a4.619,4.619,0,0,0,.74-1.234l1.357.37a4.146,4.146,0,0,1-.987,1.727c-1.481,1.974-4.072,5.552-5.182,18.384a221.91,221.91,0,0,0,0,22.208c.494,12.215.864,23.689-1.727,30.351C161.965,281.6,149.381,311.333,149.257,311.58Z" transform="translate(-147.157 -188.344)" fill="#fff"/>
        </g>
      </g>
      <g id="Group_649" data-name="Group 649" transform="translate(76.515 35.538)">
        <path id="Path_709" data-name="Path 709" d="M184.174,215.006s5.922-20.6,13.2-25.046a38.672,38.672,0,0,0,10.981-9.5c4.812-6.416,4.688-15.176,4.318-23.2-.123-1.481-1.481-6.046-3.578-6.909-1.727-.617-2.591-1.974-2.838-.864s1.974,9.007,1.234,9.994c-1.481,1.974-4.812.617-5.922-1.481s-.987-4.688-1.481-7.033-2.344-4.935-4.812-4.565l-2.1.123c-11.721,6.909-18.26,17.643-22.085,30.722-1.234,4.195-20.728,18.754-23.2,22.332C148.147,199.583,160.731,212.908,184.174,215.006Z" transform="translate(-147.9 -146.371)" fill="#10bcf9"/>
      </g>
      <g id="Group_650" data-name="Group 650" transform="translate(120.457 54.634)">
        <path id="Path_710" data-name="Path 710" d="M212.984,186.958a26.947,26.947,0,0,0,6.292,2.1,25.79,25.79,0,0,0,8.143-.247c11.6-1.481,23.442-3.084,33.929-8.513,1.974-.987,4.442-2.1,6.169-.74,1.234.987,2.221,3.331,3.578,2.591,1.234-.617.494-2.591-.493-3.455-3.331-3.331-8.39-5.429-12.708-3.825a36.545,36.545,0,0,0-3.825,1.851c-2.961,1.234-6.169,1.11-9.377.987-5.922-.123-11.844-.37-17.767-.494a43.094,43.094,0,0,1-8.02-.74A32.856,32.856,0,0,1,212,174a65.584,65.584,0,0,1-11.721-7.033c-2.714-1.974-5.305-4.195-8.637-4.935-3.208-.74-7.279.74-8.02,4.072h0c-1.234,5.059,8.76,9.5,12.215,11.6A143.061,143.061,0,0,0,212.984,186.958Z" transform="translate(-183.515 -161.849)" fill="#f9b4aa"/>
      </g>
      <path id="Path_711" data-name="Path 711" d="M187.221,172.7s2.1,1.727,2.961.37c1.234-2.221-2.1-6.046.247-7.033a8.457,8.457,0,0,0,3.455-3.085l-2.221-1.357L185,167.029Z" transform="translate(-62.711 -107.273)" fill="#fca39a"/>
      <g id="Group_651" data-name="Group 651" transform="translate(127.787 24.954)">
        <path id="Path_712" data-name="Path 712" d="M199.627,148.782h0a6.388,6.388,0,0,0-1.727,4.072,11.677,11.677,0,0,0,.987,4.565c.37,1.481.494,3.331-.37,4.565a3.7,3.7,0,0,1-3.948,1.357,6.057,6.057,0,0,1-3.455-2.591,11.979,11.979,0,0,1-1.357-4.195,23.689,23.689,0,0,1,3.084-16.039c.494-.74.617-2.591,1.6-2.714.494-.123,1.481,1.11,2.1,1.234a17.875,17.875,0,0,1,6.046,4.442,1.623,1.623,0,0,1,.123,2.591A13.788,13.788,0,0,0,199.627,148.782Z" transform="translate(-189.456 -137.793)" fill="#f9b4aa"/>
      </g>
      <g id="Group_652" data-name="Group 652" transform="translate(129.538 24.84)">
        <path id="Path_713" data-name="Path 713" d="M202.627,145.6a3.755,3.755,0,0,1-.987.987,2.487,2.487,0,0,1-1.357.37,4.107,4.107,0,0,1-1.234-.74,4.344,4.344,0,0,0-2.344-1.234,2.158,2.158,0,0,0-2.221,1.234,6.006,6.006,0,0,0-.123,1.481,5.815,5.815,0,0,1-1.481,3.7c-.123.123-.37.37-.617.247a1.7,1.7,0,0,1-.37-.494,26.347,26.347,0,0,1-.987-5.429,9.145,9.145,0,0,1,.123-2.591,26.4,26.4,0,0,1,1.234-2.714,7.291,7.291,0,0,1,.74-1.727,2.029,2.029,0,0,1,1.481-.987,2.587,2.587,0,0,1,1.357.493,6.767,6.767,0,0,1,2.221,2.714c.247.617.494,1.357.74,1.974a3.429,3.429,0,0,0,1.481,1.481c.37.123.864.123,1.357.247.617.123,1.11.494.987.987" transform="translate(-190.875 -137.7)" fill="#fca39a"/>
      </g>
      <g id="Group_654" data-name="Group 654" transform="translate(131.182 4.657)">
        <g id="Group_653" data-name="Group 653">
          <path id="Path_714" data-name="Path 714" d="M201.822,150.038c1.851.617,3.948,1.481,5.429.123,1.974-1.851,1.234-7.279,3.7-7.773.494-.123,1.11-.247,1.357-.617.617-.864,0-1.851-.617-2.961-1.234-2.221-.123-5.305-.37-7.773a10.988,10.988,0,0,0-5.059-8.637c-3.085-1.727-7.279-1.357-9.624,1.234a12.151,12.151,0,0,0-2.468,5.429h0c-1.357,4.688-3.084,8.02-.987,12.831A14.438,14.438,0,0,0,201.822,150.038Z" transform="translate(-192.207 -121.342)" fill="#f9b4aa"/>
        </g>
      </g>
      <path id="Path_715" data-name="Path 715" d="M193.051,141.3a11.372,11.372,0,0,1,3.7-2.714,5.175,5.175,0,0,0,3.085-5.182c-.247-1.974,1.234-2.344,2.468-2.714,1.357-.37,2.221-.617,2.591-1.357,0,0,3.7.987,4.935,1.11a2.446,2.446,0,0,0,1.974-.37l-3.7-5.429-2.961-.74-4.195,1.851-4.935,2.591-1.727,1.727-1.357,4.812-1.727,4.442Z" transform="translate(-61.261 -116.087)" fill="#fca39a"/>
      <g id="Group_656" data-name="Group 656" transform="translate(140.796 15.586)">
        <g id="Group_655" data-name="Group 655">
          <path id="Path_716" data-name="Path 716" d="M207.279,130.817c.123.493.123.987-.37,1.234a1.462,1.462,0,0,1-.987-.123,17.7,17.7,0,0,0-3.455-.864,3.648,3.648,0,0,0-2.468.74,3.728,3.728,0,0,1,2.714-1.6,28.97,28.97,0,0,1,4.565.617" transform="translate(-200 -130.2)" fill="url(#linear-gradient-20)"/>
        </g>
      </g>
      <path id="Path_717" data-name="Path 717" d="M204.7,133.284h.123a1.8,1.8,0,0,1,1.11.74l-.123-.123a2.066,2.066,0,0,0-2.344-.987c-.494.123-.864.37-1.357.494a.927.927,0,0,1-1.11-.494,1.2,1.2,0,0,0,.864.987,1.742,1.742,0,0,0,1.11-.123v.123a.927.927,0,1,0,1.851.123A1.565,1.565,0,0,0,204.7,133.284Z" transform="translate(-58.97 -113.997)" fill="#29235c"/>
      <g id="Group_657" data-name="Group 657" transform="translate(147.994 23.853)">
        <path id="Path_718" data-name="Path 718" d="M206.039,137.147a.76.76,0,0,0-.123.864.833.833,0,0,0,.74.493h.123v-.123a1.143,1.143,0,0,1-.37-1.481,1.527,1.527,0,0,0-.37.247" transform="translate(-205.834 -136.9)" fill="#f78dab"/>
      </g>
      <g id="Group_658" data-name="Group 658" transform="translate(144.227 27.184)">
        <path id="Path_719" data-name="Path 719" d="M202.8,140.094a1.293,1.293,0,0,0,1.481.123c.494-.123.987-.37,1.481-.494a2.1,2.1,0,0,1,.864-.123,1.015,1.015,0,0,1,.74.493,1.054,1.054,0,0,1,0,.864c-.247.37-.864.247-1.234.247-.494,0-.864.123-1.357.123a1.748,1.748,0,0,1-1.357-.123,1.079,1.079,0,0,1-.617-1.11" transform="translate(-202.78 -139.6)" fill="#29235c"/>
      </g>
      <g id="Group_659" data-name="Group 659" transform="translate(144.591 28.418)">
        <path id="Path_720" data-name="Path 720" d="M203.106,140.6a4,4,0,0,0,2.838.987,1.112,1.112,0,0,1,.617.123c.123.123,0,.37,0,.494-.123.37-.247.617-.493.617a2.1,2.1,0,0,1-2.1-.37,1.587,1.587,0,0,1-.864-1.851Z" transform="translate(-203.075 -140.6)" fill="#29235c"/>
      </g>
      <g id="Group_661" data-name="Group 661" transform="translate(125.25 9.396)">
        <g id="Group_660" data-name="Group 660">
          <path id="Path_721" data-name="Path 721" d="M202.329,125.944a5.594,5.594,0,0,0-4.072,1.727,5.756,5.756,0,0,0-1.357,4.195,12.467,12.467,0,0,1,.37,2.1,2.218,2.218,0,0,1-.494,1.974,4.53,4.53,0,0,1-2.468,1.11,5.47,5.47,0,0,0-2.838,3.331,9.032,9.032,0,0,0-.123,4.442c.37,1.851.987,3.7.247,5.429a3.587,3.587,0,0,1-4.195,1.974,2.888,2.888,0,0,0,2.591-2.344c.247-1.481-.617-2.838-1.234-4.195a8.928,8.928,0,0,1-.617-5.922,6.59,6.59,0,0,1,3.825-4.442c.494-.247,1.11-.37,1.727-.617a2.037,2.037,0,0,0,1.234-1.234c.247-.617-.123-1.357-.247-1.974a5.136,5.136,0,0,1,1.974-5.305,5.023,5.023,0,0,1,5.675-.247" transform="translate(-187.4 -125.183)" fill="#29235c"/>
        </g>
      </g>
      <g id="Group_662" data-name="Group 662" transform="translate(79.723)">
        <path id="Path_722" data-name="Path 722" d="M208.612,131.3a5.743,5.743,0,0,0,6.292-2.468,3.031,3.031,0,0,1,.617,1.851c1.727.37,5.059,1.11,6.663,1.481,1.234-4.688-3.084-11.844-7.65-13.572s-14.189-1.357-18.013,1.727a17.1,17.1,0,0,0-4.935,6.169c-.987,2.1-2.221,6.046-3.208,8.143a19.94,19.94,0,0,1-11.351,10.117c-2.468.864-8.513,2.1-13.2,5.059-4.935,3.084-7.156,12.461-8.02,14.065-1.357,2.961-2.961,6.909-5.305,9.747,1.727,3.208,5.922,10.981,6.539,11.228a12.984,12.984,0,0,1,4.442-1.11,28.876,28.876,0,0,1-1.974,2.838c.864,1.357,7.9,9.5,7.9,9.5s3.208-2.468,4.318-4.442a47.378,47.378,0,0,0,4.442-9.87c1.234-3.7,2.1-7.526,3.7-11.1s4.318-6.909,7.9-8.143c2.714-.987,5.8-.864,8.513-1.851a10.055,10.055,0,0,0,6.416-9.007c.123-3.331-1.357-7.033.617-9.747,1.357-1.851,4.318-2.838,4.565-5.182a7.65,7.65,0,0,0-.494-2.838,2.677,2.677,0,0,1,.74-2.591" transform="translate(-150.5 -117.567)" fill="url(#linear-gradient-21)"/>
      </g>
      <g id="Group_663" data-name="Group 663" transform="translate(108.991 47.43)">
        <path id="Path_723" data-name="Path 723" d="M174.935,169.816h0a11.113,11.113,0,0,0,9.5,6.786c1.851.123,4.072-.494,4.812-2.221.74-1.851-.74-4.072.123-5.922.987-2.221,4.812-2.344,5.305-4.812a3.49,3.49,0,0,0-.864-2.591,11.423,11.423,0,0,0-8.02-4.935A10.07,10.07,0,0,0,174.935,169.816Z" transform="translate(-174.222 -156.01)" fill="url(#linear-gradient-22)"/>
      </g>
    </g>
  </g>
</svg>
